<?xml version="1.0" encoding="UTF-8" standalone="no"?>
<!-- Created with Inkscape (http://www.inkscape.org/) -->

<svg
   xmlns:dc="http://purl.org/dc/elements/1.1/"
   xmlns:cc="http://creativecommons.org/ns#"
   xmlns:rdf="http://www.w3.org/1999/02/22-rdf-syntax-ns#"
   xmlns:svg="http://www.w3.org/2000/svg"
   xmlns="http://www.w3.org/2000/svg"
   version="1.1"
   width="840"
   height="370"
   id="svg1324">
  <metadata
     id="metadata1329">
    <rdf:RDF>
      <cc:Work
         rdf:about="">
        <dc:format>image/svg+xml</dc:format>
        <dc:type
           rdf:resource="http://purl.org/dc/dcmitype/StillImage" />
        <dc:title></dc:title>
      </cc:Work>
    </rdf:RDF>
  </metadata>
  <defs
     id="defs1327" />
  <path
     d="m 445,102.36218 c 0,40.31679 -32.68321,73 -73,73 -40.31679,0 -73,-32.68321 -73,-73 0,-40.316784 32.68321,-72.999997 73,-72.999997 40.31679,0 73,32.683213 73,72.999997 z"
     transform="matrix(1.364737,0,0,1.364737,-87,-5.189224)"
     id="path1333"
     style="fill:#ffffff;fill-opacity:1;fill-rule:evenodd;stroke:#000000;stroke-width:2.05167747;stroke-linecap:butt;stroke-linejoin:miter;stroke-miterlimit:4;stroke-opacity:1;stroke-dashoffset:0" />
  <path
     d="m 34.46164,33.517714 128.28534,0 0,201.981146 -128.28534,0"
     id="path2061"
     style="fill:#ffffff;fill-opacity:1;fill-rule:evenodd;stroke:#000000;stroke-width:2.79999995;stroke-linecap:butt;stroke-linejoin:miter;stroke-miterlimit:4;stroke-opacity:1;stroke-dasharray:none" />
  <path
     d="m 805.53836,33.517714 -128.28532,0 0,201.981146 128.28532,0"
     id="path2068"
     style="fill:#ffffff;fill-opacity:1;fill-rule:evenodd;stroke:#000000;stroke-width:2.79999995;stroke-linecap:butt;stroke-linejoin:miter;stroke-miterlimit:4;stroke-opacity:1;stroke-dasharray:none" />
  <g
     transform="matrix(1.364737,0,0,1.364737,-85.63526,-4.506851)"
     id="g2127">
    <path
       d="m 295.4984,102.12447 -13.9968,-4.6958 0.0341,8.86702 13.96269,-4.17122 z"
       id="path2102"
       style="fill:#000000;fill-opacity:1;fill-rule:evenodd;stroke:#000000;stroke-width:1px;stroke-linecap:butt;stroke-linejoin:miter;stroke-opacity:1" />
    <path
       d="m 183,101.86218 99.5,0"
       id="path2123"
       style="fill:none;stroke:#000000;stroke-width:2;stroke-linecap:butt;stroke-linejoin:miter;stroke-miterlimit:4;stroke-opacity:1;stroke-dasharray:none" />
  </g>
  <g
     transform="matrix(1.364737,0,0,1.364737,269.8788,-4.506851)"
     id="g2131">
    <path
       d="m 295.4984,102.12447 -13.9968,-4.6958 0.0341,8.86702 13.96269,-4.17122 z"
       id="path2133"
       style="fill:#000000;fill-opacity:1;fill-rule:evenodd;stroke:#000000;stroke-width:1px;stroke-linecap:butt;stroke-linejoin:miter;stroke-opacity:1" />
    <path
       d="m 183,101.86218 99.5,0"
       id="path2135"
       style="fill:none;stroke:#000000;stroke-width:2;stroke-linecap:butt;stroke-linejoin:miter;stroke-miterlimit:4;stroke-opacity:1;stroke-dasharray:none" />
  </g>
  <g
     transform="matrix(-0.01200037,1.364685,-1.364685,-0.01200037,563.0704,-64.18968)"
     id="g2137">
    <path
       d="m 295.4984,102.12447 -13.9968,-4.6958 0.0341,8.86702 13.96269,-4.17122 z"
       id="path2139"
       style="fill:#000000;fill-opacity:1;fill-rule:evenodd;stroke:#000000;stroke-width:1px;stroke-linecap:butt;stroke-linejoin:miter;stroke-opacity:1" />
    <path
       d="M 218.88132,102.42169 282.5,101.86218"
       id="path2141"
       style="fill:none;stroke:#000000;stroke-width:2;stroke-linecap:butt;stroke-linejoin:miter;stroke-miterlimit:4;stroke-opacity:1;stroke-dasharray:none" />
  </g>
  <g
     transform="translate(-116.8697,-66.16916)"
     id="g2124">
    <g
       id="text2108"
       style="font-size:48px;font-style:italic;font-variant:normal;font-weight:bold;font-stretch:normal;text-align:center;line-height:125%;writing-mode:lr-tb;text-anchor:middle;fill:#000000;fill-opacity:1;stroke:none;font-family:Times New Roman">
      <path
         d="m 348,180.08875 -4.125,3.75 c 1.54686,-0.31251 2.81249,-0.46876 3.79687,-0.46875 1.35936,-1e-5 3.27343,0.32812 5.74219,0.98437 2.46873,0.65624 4.41404,0.98437 5.83594,0.98438 1.56247,-1e-5 3.00778,-0.28126 4.33594,-0.84375 0.82809,-0.34376 1.67965,-0.9297 2.55468,-1.75782 l 0.70313,0.65625 c -1.57816,1.92187 -3.43753,3.39062 -5.57813,4.40625 -2.14065,1.03124 -4.83596,1.54687 -8.08593,1.54688 -1.82815,-1e-5 -3.96096,-0.26564 -6.39844,-0.79688 -2.43751,-0.51563 -4.37501,-0.77344 -5.8125,-0.77343 -1.14063,-1e-5 -2.35938,0.17186 -3.65625,0.51562 l -0.44531,-0.58594 8.64843,-7.61718 c -2.03125,-0.34376 -3.58594,-0.89063 -4.66406,-1.64063 -1.46875,-1 -2.60938,-2.36718 -3.42187,-4.10156 -0.81251,-1.75 -1.21876,-3.54687 -1.21875,-5.39063 -10e-6,-3.46873 0.99218,-6.96092 2.97656,-10.47656 1.99999,-3.53123 4.67186,-6.35154 8.01562,-8.46094 3.35936,-2.10934 6.68748,-3.16403 9.98438,-3.16406 1.90622,3e-5 3.72654,0.47659 5.46094,1.42969 1.73434,0.95315 3.07809,2.30471 4.03125,4.05469 0.95309,1.7344 1.42965,3.53908 1.42968,5.41406 -3e-5,2.79689 -0.67972,5.67189 -2.03906,8.625 -1.3594,2.93751 -3.20315,5.50001 -5.53125,7.6875 -2.31252,2.1875 -4.64846,3.77344 -7.00781,4.75781 -1.59377,0.67187 -3.43752,1.09375 -5.53125,1.26563 m 8.41406,-31.33594 c -1.23439,3e-5 -2.28908,0.22659 -3.16406,0.67969 -0.85939,0.43752 -1.75783,1.17971 -2.69531,2.22656 -0.93752,1.0469 -1.89064,2.5469 -2.85938,4.5 -0.96876,1.93752 -1.88282,4.57814 -2.74219,7.92187 -0.84376,3.34376 -1.26563,6.13282 -1.26562,8.36719 -10e-6,1.90626 0.41405,3.35157 1.24219,4.33594 0.82811,0.96875 1.89061,1.45312 3.1875,1.45312 1.71873,0 3.17967,-0.57031 4.38281,-1.71093 2.3906,-2.26562 4.33591,-5.58593 5.83594,-9.96094 1.5156,-4.39061 2.27341,-8.29686 2.27343,-11.71875 -2e-5,-2.1406 -0.40627,-3.68747 -1.21875,-4.64063 -0.79689,-0.96872 -1.78908,-1.45309 -2.97656,-1.45312"
         id="path3141" />
    </g>
    <g
       id="text2120"
       style="font-size:28px;font-style:italic;font-variant:normal;font-weight:normal;font-stretch:normal;text-align:center;line-height:125%;writing-mode:lr-tb;text-anchor:middle;fill:#000000;fill-opacity:1;stroke:none;font-family:Times New Roman">
      <path
         d="m 377.53711,175.01617 8.55859,0 1.35352,-4.58007 c 0.25519,-0.89322 0.38279,-1.58592 0.38281,-2.07813 -2e-5,-0.23696 -0.0593,-0.43748 -0.17773,-0.60156 -0.1094,-0.17316 -0.28257,-0.30076 -0.51953,-0.38281 -0.237,-0.082 -0.70184,-0.12303 -1.39454,-0.12305 l 0.13672,-0.50586 7.46485,0 -0.16407,0.50586 c -0.62892,-0.009 -1.09832,0.0547 -1.4082,0.19141 -0.43752,0.19142 -0.76109,0.43751 -0.9707,0.73828 -0.3008,0.4284 -0.60614,1.18035 -0.91602,2.25586 l -3.26758,11.19726 c -0.27345,0.92969 -0.41017,1.59506 -0.41015,1.9961 -2e-5,0.34635 0.11847,0.61067 0.35547,0.79296 0.24607,0.17318 0.82485,0.29167 1.73632,0.35547 l -0.15039,0.50586 -7.21875,0 0.19141,-0.50586 c 0.71093,-0.0182 1.18488,-0.082 1.42188,-0.1914 0.36457,-0.16406 0.62889,-0.3737 0.79296,-0.62891 0.23697,-0.35547 0.52864,-1.13021 0.875,-2.32422 l 1.66797,-5.67383 -8.59961,0 -1.68164,5.67383 c -0.26432,0.91146 -0.39649,1.57683 -0.39648,1.9961 -1e-5,0.34635 0.11848,0.61067 0.35547,0.79296 0.23697,0.17318 0.81119,0.29167 1.72265,0.35547 l -0.10937,0.50586 -7.27344,0 0.17774,-0.50586 c 0.72005,-0.0182 1.19856,-0.082 1.43554,-0.1914 0.36458,-0.16406 0.63346,-0.3737 0.80664,-0.62891 0.23698,-0.3737 0.52865,-1.14843 0.875,-2.32422 l 3.28125,-11.19726 c 0.26432,-0.91145 0.39648,-1.60415 0.39649,-2.07813 -10e-6,-0.23696 -0.0593,-0.43748 -0.17774,-0.60156 -0.10938,-0.17316 -0.28711,-0.30076 -0.5332,-0.38281 -0.23698,-0.082 -0.70639,-0.12303 -1.4082,-0.12305 l 0.16406,-0.50586 7.31445,0 -0.15039,0.50586 c -0.61069,-0.009 -1.06186,0.0547 -1.35351,0.19141 -0.4284,0.1823 -0.74285,0.42384 -0.94336,0.7246 -0.27345,0.40106 -0.57423,1.15757 -0.90235,2.26954 l -1.33984,4.58007"
         id="path3144" />
    </g>
  </g>
  <g
     transform="translate(241.1303,-66.16916)"
     id="g2170">
    <g
       id="text2172"
       style="font-size:48px;font-style:italic;font-variant:normal;font-weight:bold;font-stretch:normal;text-align:center;line-height:125%;writing-mode:lr-tb;text-anchor:middle;fill:#000000;fill-opacity:1;stroke:none;font-family:Times New Roman">
      <path
         d="m 348,180.08875 -4.125,3.75 c 1.54686,-0.31251 2.81249,-0.46876 3.79687,-0.46875 1.35936,-1e-5 3.27343,0.32812 5.74219,0.98437 2.46873,0.65624 4.41404,0.98437 5.83594,0.98438 1.56247,-1e-5 3.00778,-0.28126 4.33594,-0.84375 0.82809,-0.34376 1.67965,-0.9297 2.55468,-1.75782 l 0.70313,0.65625 c -1.57816,1.92187 -3.43753,3.39062 -5.57813,4.40625 -2.14065,1.03124 -4.83596,1.54687 -8.08593,1.54688 -1.82815,-1e-5 -3.96096,-0.26564 -6.39844,-0.79688 -2.43751,-0.51563 -4.37501,-0.77344 -5.8125,-0.77343 -1.14063,-1e-5 -2.35938,0.17186 -3.65625,0.51562 l -0.44531,-0.58594 8.64843,-7.61718 c -2.03125,-0.34376 -3.58594,-0.89063 -4.66406,-1.64063 -1.46875,-1 -2.60938,-2.36718 -3.42187,-4.10156 -0.81251,-1.75 -1.21876,-3.54687 -1.21875,-5.39063 -10e-6,-3.46873 0.99218,-6.96092 2.97656,-10.47656 1.99999,-3.53123 4.67186,-6.35154 8.01562,-8.46094 3.35936,-2.10934 6.68748,-3.16403 9.98438,-3.16406 1.90622,3e-5 3.72654,0.47659 5.46094,1.42969 1.73434,0.95315 3.07809,2.30471 4.03125,4.05469 0.95309,1.7344 1.42965,3.53908 1.42968,5.41406 -3e-5,2.79689 -0.67972,5.67189 -2.03906,8.625 -1.3594,2.93751 -3.20315,5.50001 -5.53125,7.6875 -2.31252,2.1875 -4.64846,3.77344 -7.00781,4.75781 -1.59377,0.67187 -3.43752,1.09375 -5.53125,1.26563 m 8.41406,-31.33594 c -1.23439,3e-5 -2.28908,0.22659 -3.16406,0.67969 -0.85939,0.43752 -1.75783,1.17971 -2.69531,2.22656 -0.93752,1.0469 -1.89064,2.5469 -2.85938,4.5 -0.96876,1.93752 -1.88282,4.57814 -2.74219,7.92187 -0.84376,3.34376 -1.26563,6.13282 -1.26562,8.36719 -10e-6,1.90626 0.41405,3.35157 1.24219,4.33594 0.82811,0.96875 1.89061,1.45312 3.1875,1.45312 1.71873,0 3.17967,-0.57031 4.38281,-1.71093 2.3906,-2.26562 4.33591,-5.58593 5.83594,-9.96094 1.5156,-4.39061 2.27341,-8.29686 2.27343,-11.71875 -2e-5,-2.1406 -0.40627,-3.68747 -1.21875,-4.64063 -0.79689,-0.96872 -1.78908,-1.45309 -2.97656,-1.45312"
         id="path3147" />
    </g>
    <g
       id="text2176"
       style="font-size:28px;font-style:italic;font-variant:normal;font-weight:normal;font-stretch:normal;text-align:center;line-height:125%;writing-mode:lr-tb;text-anchor:middle;fill:#000000;fill-opacity:1;stroke:none;font-family:Times New Roman">
      <path
         d="m 391.09961,166.32086 -1.38086,6.00195 -0.49219,0 -0.0547,-1.5039 c -0.0456,-0.54686 -0.1504,-1.03449 -0.31445,-1.46289 -0.16408,-0.42837 -0.41017,-0.79751 -0.73828,-1.10742 -0.32814,-0.319 -0.74285,-0.56509 -1.24414,-0.73829 -0.50132,-0.18227 -1.05731,-0.27341 -1.66797,-0.27343 -1.63152,2e-5 -3.05795,0.44663 -4.2793,1.33984 -1.5586,1.13934 -2.77995,2.74806 -3.66406,4.82617 -0.72917,1.71355 -1.09375,3.44988 -1.09375,5.20899 0,1.79558 0.52409,3.23112 1.57227,4.30664 1.04817,1.06641 2.4108,1.59961 4.08789,1.59961 1.26691,0 2.39256,-0.28255 3.37695,-0.84766 0.99348,-0.5651 1.91405,-1.43554 2.76172,-2.61133 l 0.64258,0 c -1.00262,1.59506 -2.1146,2.77084 -3.33594,3.52735 -1.22137,0.74739 -2.68426,1.12109 -4.38867,1.12109 -1.51303,0 -2.85287,-0.31445 -4.01953,-0.94336 -1.16667,-0.63802 -2.05534,-1.53125 -2.66602,-2.67969 -0.61068,-1.14843 -0.91602,-2.38345 -0.91601,-3.70507 -10e-6,-2.02343 0.54231,-3.99218 1.62695,-5.90625 1.08463,-1.91405 2.57031,-3.41796 4.45703,-4.51172 1.89582,-1.09373 3.80533,-1.64061 5.72852,-1.64063 0.90233,2e-5 1.91404,0.21421 3.03515,0.64258 0.49217,0.18231 0.84764,0.27346 1.06641,0.27344 0.21873,2e-5 0.41014,-0.0456 0.57422,-0.13672 0.16404,-0.0911 0.43748,-0.35089 0.82031,-0.7793 l 0.50586,0"
         id="path3150" />
    </g>
  </g>
  <g
     transform="translate(375.7716,-32.13597)"
     id="g2180"
     style="fill:#0087f5;fill-opacity:1">
    <g
       id="text2182"
       style="font-size:48px;font-style:italic;font-variant:normal;font-weight:bold;font-stretch:normal;text-align:center;line-height:125%;writing-mode:lr-tb;text-anchor:middle;fill:#0087f5;stroke:none;font-family:Times New Roman">
      <path
         d="m 344.01562,147.58093 25.57032,0 -2.41407,8.55469 -0.84375,0 c 0.0312,-0.4531 0.0469,-0.85154 0.0469,-1.19531 -3e-5,-1.62498 -0.47659,-2.88279 -1.42969,-3.77344 -0.95315,-0.90622 -2.56252,-1.42185 -4.82812,-1.54687 l -7.07813,23.92968 c -0.39064,1.32813 -0.58595,2.31251 -0.58594,2.95313 -1e-5,0.59375 0.24218,1.07031 0.72657,1.42969 0.48436,0.34375 1.46873,0.53125 2.95312,0.5625 l -0.21094,0.86718 -15.77343,0 0.28125,-0.86718 c 1.60937,0 2.78124,-0.29688 3.51562,-0.89063 0.73437,-0.60937 1.40624,-1.96093 2.01563,-4.05469 l 7.0781,-23.92968 c -2.43751,0.0781 -4.47657,0.6094 -6.11719,1.59375 -1.64063,0.9844 -3.14063,2.62502 -4.5,4.92187 l -0.91406,0 2.50781,-8.55469"
         id="path3153" />
    </g>
    <g
       id="text2186"
       style="font-size:28px;font-style:italic;font-variant:normal;font-weight:normal;font-stretch:normal;text-align:center;line-height:125%;writing-mode:lr-tb;text-anchor:middle;fill:#0087f5;stroke:none;font-family:Times New Roman">
      <path
         d="m 391.09961,166.32086 -1.38086,6.00195 -0.49219,0 -0.0547,-1.5039 c -0.0456,-0.54686 -0.1504,-1.03449 -0.31445,-1.46289 -0.16408,-0.42837 -0.41017,-0.79751 -0.73828,-1.10742 -0.32814,-0.319 -0.74285,-0.56509 -1.24414,-0.73829 -0.50132,-0.18227 -1.05731,-0.27341 -1.66797,-0.27343 -1.63152,2e-5 -3.05795,0.44663 -4.2793,1.33984 -1.5586,1.13934 -2.77995,2.74806 -3.66406,4.82617 -0.72917,1.71355 -1.09375,3.44988 -1.09375,5.20899 0,1.79558 0.52409,3.23112 1.57227,4.30664 1.04817,1.06641 2.4108,1.59961 4.08789,1.59961 1.26691,0 2.39256,-0.28255 3.37695,-0.84766 0.99348,-0.5651 1.91405,-1.43554 2.76172,-2.61133 l 0.64258,0 c -1.00262,1.59506 -2.1146,2.77084 -3.33594,3.52735 -1.22137,0.74739 -2.68426,1.12109 -4.38867,1.12109 -1.51303,0 -2.85287,-0.31445 -4.01953,-0.94336 -1.16667,-0.63802 -2.05534,-1.53125 -2.66602,-2.67969 -0.61068,-1.14843 -0.91602,-2.38345 -0.91601,-3.70507 -10e-6,-2.02343 0.54231,-3.99218 1.62695,-5.90625 1.08463,-1.91405 2.57031,-3.41796 4.45703,-4.51172 1.89582,-1.09373 3.80533,-1.64061 5.72852,-1.64063 0.90233,2e-5 1.91404,0.21421 3.03515,0.64258 0.49217,0.18231 0.84764,0.27346 1.06641,0.27344 0.21873,2e-5 0.41014,-0.0456 0.57422,-0.13672 0.16404,-0.0911 0.43748,-0.35089 0.82031,-0.7793 l 0.50586,0"
         id="path3156" />
    </g>
  </g>
  <g
     transform="translate(-268.1408,-32.13597)"
     id="g2190"
     style="fill:#ff2d06;fill-opacity:1">
    <g
       id="text2192"
       style="font-size:48px;font-style:italic;font-variant:normal;font-weight:bold;font-stretch:normal;text-align:center;line-height:125%;writing-mode:lr-tb;text-anchor:middle;fill:#ff2d06;stroke:none;font-family:Times New Roman">
      <path
         d="m 344.01562,147.58093 25.57032,0 -2.41407,8.55469 -0.84375,0 c 0.0312,-0.4531 0.0469,-0.85154 0.0469,-1.19531 -3e-5,-1.62498 -0.47659,-2.88279 -1.42969,-3.77344 -0.95315,-0.90622 -2.56252,-1.42185 -4.82812,-1.54687 l -7.07813,23.92968 c -0.39064,1.32813 -0.58595,2.31251 -0.58594,2.95313 -1e-5,0.59375 0.24218,1.07031 0.72657,1.42969 0.48436,0.34375 1.46873,0.53125 2.95312,0.5625 l -0.21094,0.86718 -15.77343,0 0.28125,-0.86718 c 1.60937,0 2.78124,-0.29688 3.51562,-0.89063 0.73437,-0.60937 1.40624,-1.96093 2.01563,-4.05469 l 7.0781,-23.92968 c -2.43751,0.0781 -4.47657,0.6094 -6.11719,1.59375 -1.64063,0.9844 -3.14063,2.62502 -4.5,4.92187 l -0.91406,0 2.50781,-8.55469"
         id="path3159" />
    </g>
    <g
       id="text2196"
       style="font-size:28px;font-style:italic;font-variant:normal;font-weight:normal;font-stretch:normal;text-align:center;line-height:125%;writing-mode:lr-tb;text-anchor:middle;fill:#ff2d06;stroke:none;font-family:Times New Roman">
      <path
         d="m 377.53711,175.01617 8.55859,0 1.35352,-4.58007 c 0.25519,-0.89322 0.38279,-1.58592 0.38281,-2.07813 -2e-5,-0.23696 -0.0593,-0.43748 -0.17773,-0.60156 -0.1094,-0.17316 -0.28257,-0.30076 -0.51953,-0.38281 -0.237,-0.082 -0.70184,-0.12303 -1.39454,-0.12305 l 0.13672,-0.50586 7.46485,0 -0.16407,0.50586 c -0.62892,-0.009 -1.09832,0.0547 -1.4082,0.19141 -0.43752,0.19142 -0.76109,0.43751 -0.9707,0.73828 -0.3008,0.4284 -0.60614,1.18035 -0.91602,2.25586 l -3.26758,11.19726 c -0.27345,0.92969 -0.41017,1.59506 -0.41015,1.9961 -2e-5,0.34635 0.11847,0.61067 0.35547,0.79296 0.24607,0.17318 0.82485,0.29167 1.73632,0.35547 l -0.15039,0.50586 -7.21875,0 0.19141,-0.50586 c 0.71093,-0.0182 1.18488,-0.082 1.42188,-0.1914 0.36457,-0.16406 0.62889,-0.3737 0.79296,-0.62891 0.23697,-0.35547 0.52864,-1.13021 0.875,-2.32422 l 1.66797,-5.67383 -8.59961,0 -1.68164,5.67383 c -0.26432,0.91146 -0.39649,1.57683 -0.39648,1.9961 -1e-5,0.34635 0.11848,0.61067 0.35547,0.79296 0.23697,0.17318 0.81119,0.29167 1.72265,0.35547 l -0.10937,0.50586 -7.27344,0 0.17774,-0.50586 c 0.72005,-0.0182 1.19856,-0.082 1.43554,-0.1914 0.36458,-0.16406 0.63346,-0.3737 0.80664,-0.62891 0.23698,-0.3737 0.52865,-1.14843 0.875,-2.32422 l 3.28125,-11.19726 c 0.26432,-0.91145 0.39648,-1.60415 0.39649,-2.07813 -10e-6,-0.23696 -0.0593,-0.43748 -0.17774,-0.60156 -0.10938,-0.17316 -0.28711,-0.30076 -0.5332,-0.38281 -0.23698,-0.082 -0.70639,-0.12303 -1.4082,-0.12305 l 0.16406,-0.50586 7.31445,0 -0.15039,0.50586 c -0.61069,-0.009 -1.06186,0.0547 -1.35351,0.19141 -0.4284,0.1823 -0.74285,0.42384 -0.94336,0.7246 -0.27345,0.40106 -0.57423,1.15757 -0.90235,2.26954 l -1.33984,4.58007"
         id="path3162" />
    </g>
  </g>
  <g
     transform="translate(142.8592,130.864)"
     id="g2200">
    <g
       id="text2202"
       style="font-size:48px;font-style:italic;font-variant:normal;font-weight:bold;font-stretch:normal;text-align:center;line-height:125%;writing-mode:lr-tb;text-anchor:middle;fill:#000000;fill-opacity:1;stroke:none;font-family:Times New Roman">
      <path
         d="m 295.92969,169.08875 2.15625,-27.1875 c 0.0625,-0.79685 0.0937,-1.4531 0.0937,-1.96875 -1e-5,-0.8281 -0.19532,-1.43748 -0.58594,-1.82813 -0.37501,-0.39059 -1.04688,-0.60934 -2.01563,-0.65625 l 0.35157,-0.86719 12.84375,0 -0.25782,0.86719 -0.63281,0 c -0.84376,3e-5 -1.53126,0.28128 -2.0625,0.84375 -0.51564,0.5469 -0.82814,1.57815 -0.9375,3.09375 l -1.24219,16.125 9.58594,-13.10156 0.23438,-3.02344 c 0.0625,-0.62497 0.0937,-1.12497 0.0937,-1.5 -3e-5,-0.7656 -0.21096,-1.35153 -0.63282,-1.75781 -0.40627,-0.40622 -1.08595,-0.63278 -2.03906,-0.67969 l 0.23438,-0.86719 12.9375,0 -0.25782,0.86719 c -1.14065,3e-5 -1.9844,0.28128 -2.53125,0.84375 -0.5469,0.5469 -0.88284,1.57815 -1.00781,3.09375 l -1.21875,16.125 9.23438,-12.70312 c 1.57808,-2.17185 2.55464,-3.64842 2.92968,-4.42969 0.26559,-0.53122 0.3984,-0.98435 0.39844,-1.35938 -4e-5,-0.35934 -0.17973,-0.67965 -0.53906,-0.96093 -0.34379,-0.29685 -1.01567,-0.49997 -2.01563,-0.60938 l 0.23438,-0.86719 8.48437,0 -0.21093,0.86719 c -0.76567,0.14066 -1.39849,0.40628 -1.89844,0.79688 -0.70317,0.5469 -1.61723,1.59377 -2.74219,3.14062 l -20.17969,27.70313 -1.38281,0 1.61719,-21.44532 -15.63281,21.44532 -1.40625,0"
         id="path3165" />
    </g>
  </g>
</svg>
